<?xml version="1.0" encoding="utf-8"?>
<!-- Generator: Adobe Illustrator 21.0.0, SVG Export Plug-In . SVG Version: 6.00 Build 0)  -->
<svg version="1.1" id="Capa_1" xmlns="http://www.w3.org/2000/svg" xmlns:xlink="http://www.w3.org/1999/xlink" x="0px" y="0px"
	 viewBox="0 0 168 131.1" style="enable-background:new 0 0 168 131.1;" xml:space="preserve">
<style type="text/css">
	.st0{fill:#3F2D20;}
	.st1{fill:#EF8829;}
	.st2{fill:#CE593F;}
	.st3{fill:#FDD44B;}
</style>
<g>
	<path class="st0" d="M84,30.1c1,0,2-0.4,2.7-1.1c1.5-1.5,1.5-3.9,0-5.4c-1.5-1.5-3.9-1.5-5.4,0c-1.5,1.5-1.5,3.9,0,5.4
		C82,29.7,83,30.1,84,30.1z"/>
	<path class="st0" d="M115.9,40.6c1,0,2-0.4,2.7-1.1c1.5-1.5,1.5-3.9,0-5.4c-1.5-1.5-3.9-1.5-5.4,0c-1.5,1.5-1.5,3.9,0,5.4
		C113.9,40.2,114.9,40.6,115.9,40.6z"/>
	<path class="st0" d="M52.1,40.6c1,0,2-0.4,2.7-1.1c1.5-1.5,1.5-3.9,0-5.4c-1.5-1.5-3.9-1.5-5.4,0c-1.5,1.5-1.5,3.9,0,5.4
		C50.1,40.2,51.1,40.6,52.1,40.6z"/>
	<path class="st1" d="M149.5,71.6H26c-4,0-4,6.6,0,6.6h123.6C153.5,78.2,153.5,71.6,149.5,71.6z"/>
	<g>
		<path class="st2" d="M132,90.4c0.6-0.3,1.2-0.6,1.8-1C133.2,89.8,132.6,90.1,132,90.4z"/>
		<path class="st2" d="M135.6,88.5c1.5-0.7,3.6-1.6,7.1-3C140.2,86.4,137.9,87.4,135.6,88.5z"/>
		<path class="st2" d="M152.9,94.6c0.1-0.2,0.2-0.5,0.2-0.7C153.1,94.1,153,94.3,152.9,94.6z"/>
		<path class="st2" d="M146.3,89.9h-14.6c-4.8,4.1-9.2,6.6-13,9.7h27.6c3,0,5.5-2.2,6.5-4.8C151.7,92.1,149.2,89.9,146.3,89.9z"/>
	</g>
	<g>
		<path class="st2" d="M16.1,96.6c-0.1-0.1-0.2-0.3-0.3-0.5C15.9,96.3,16,96.5,16.1,96.6z"/>
		<path class="st2" d="M15.4,95.5c-0.1-0.2-0.1-0.3-0.2-0.5C15.3,95.2,15.4,95.4,15.4,95.5z"/>
		<path class="st2" d="M16.5,97.2c0.1,0.1,0.2,0.3,0.4,0.4C16.8,97.4,16.7,97.3,16.5,97.2z"/>
		<path class="st2" d="M15,94.2c0-0.1-0.1-0.3-0.1-0.4C14.9,94,14.9,94.1,15,94.2z"/>
		<path class="st2" d="M19.5,99.1c-0.3-0.1-0.5-0.2-0.8-0.3C19,98.9,19.3,99,19.5,99.1z"/>
		<path class="st2" d="M17.9,98.4c-0.2-0.1-0.3-0.2-0.5-0.3C17.6,98.1,17.8,98.3,17.9,98.4z"/>
		<path class="st2" d="M55.4,89.4c-1-0.3-2-0.7-3-1C53.5,88.8,54.5,89.1,55.4,89.4z"/>
		<path class="st2" d="M58.8,90.2c0,0,0.1-0.3,0.1-0.3H26.8c-4.6,0-7.8,4.9-6.8,9.2c0.5,0.1,1.1,0.4,1.7,0.4h57.9
			C72.7,95.5,65.3,92.5,58.8,90.2z"/>
	</g>
	<g>
		<path class="st3" d="M126.6,86l-51.7-1.3c10.1,4,22.8,10.7,31.1,17.5C110.8,97.5,118,91.3,126.6,86z"/>
		<path class="st3" d="M101,105.3c0.2-0.3,0.5-0.5,0.8-0.8C101.5,104.8,101.3,105.1,101,105.3z"/>
	</g>
	<g>
		<path class="st3" d="M150.1,29.9c-0.7-0.7-1.5-1.4-2.3-2.1C148.6,28.5,149.4,29.2,150.1,29.9z"/>
		<path class="st3" d="M145.3,25.7c0.7,0.5,1.4,1.1,2,1.7C146.7,26.8,146,26.3,145.3,25.7z"/>
		<path class="st3" d="M142.5,23.7c0.7,0.5,1.3,0.9,2,1.4C143.9,24.6,143.2,24.1,142.5,23.7z"/>
		<path class="st3" d="M150.5,30.3c0.6,0.6,1.1,1.2,1.7,1.8C151.7,31.5,151.1,30.9,150.5,30.3z"/>
		<path class="st3" d="M154.5,35.1c1.1,1.6,2.1,3.2,2.9,4.8C156.6,38.2,155.6,36.6,154.5,35.1z"/>
		<path class="st3" d="M7.7,53.3c-0.1-0.5-0.1-0.9-0.1-1.4C7.6,52.4,7.7,52.9,7.7,53.3z"/>
		<path class="st3" d="M152.7,32.8c0.5,0.6,1,1.2,1.4,1.8C153.7,33.9,153.2,33.3,152.7,32.8z"/>
		<path class="st3" d="M138.7,21.2c1,0.6,2,1.2,3,1.9C140.7,22.4,139.8,21.8,138.7,21.2z"/>
		<path class="st3" d="M10.9,60.3c0.2,0.2,0.5,0.5,0.7,0.7C11.4,60.7,11.2,60.5,10.9,60.3z"/>
		<path class="st3" d="M12.9,62c-0.3-0.2-0.7-0.5-1-0.8C12.2,61.5,12.6,61.7,12.9,62z"/>
		<path class="st3" d="M10.7,59.9c-0.2-0.2-0.4-0.5-0.6-0.8C10.2,59.4,10.4,59.7,10.7,59.9z"/>
		<path class="st3" d="M157.5,40c-3.5-4-8.1-7.8-13.7-11.2c-12.5-7.5-27-11.4-41.3-12.9C87,14.4,71,15.4,56,19.7
			c-7.5,2.1-14.9,5.1-21.6,9.1c-9.3,5.6-18.2,13.7-20.9,24.6c-0.7,2.7-1.1,5.7-0.5,8.5c2,1.3,4.3,2.1,6.9,2.1h128.3
			c4.7,0,9.2-2.8,11.2-7.2C161.7,51.6,159.9,44.9,157.5,40z M54.8,39.5c-1.5,1.5-3.9,1.5-5.4,0c-1.5-1.5-1.5-3.9,0-5.4
			c1.5-1.5,3.9-1.5,5.4,0C56.3,35.6,56.3,38,54.8,39.5z M86.7,29c-1.5,1.5-3.9,1.5-5.4,0c-1.5-1.5-1.5-3.9,0-5.4
			c1.5-1.5,3.9-1.5,5.4,0C88.2,25,88.2,27.5,86.7,29z M118.6,39.5c-1.5,1.5-3.9,1.5-5.4,0c-1.5-1.5-1.5-3.9,0-5.4
			c1.5-1.5,3.9-1.5,5.4,0C120.1,35.6,120.1,38.1,118.6,39.5z"/>
		<path class="st3" d="M9.1,57.7c-0.2-0.4-0.4-0.8-0.5-1.2C8.7,56.9,8.9,57.3,9.1,57.7z"/>
		<path class="st3" d="M8.4,56.1c-0.1-0.3-0.2-0.6-0.3-0.9C8.2,55.5,8.3,55.8,8.4,56.1z"/>
		<path class="st3" d="M9.8,58.9c-0.3-0.4-0.5-0.8-0.7-1.2C9.3,58.1,9.6,58.5,9.8,58.9z"/>
		<path class="st3" d="M8,54.7c-0.1-0.3-0.1-0.6-0.2-1C7.8,54.1,7.9,54.4,8,54.7z"/>
	</g>
	<path class="st3" d="M151.7,107.2H110c-3.8,4.1-6.1,6.2-6.1,6.3c-1.5,1.8-4.5,1.7-5.9-0.1c-1.7-2.2-3.9-3.7-6.3-6.2H21.4
		c-2.2,0-5.2-0.1-7.1,1.2c-1.2,0.8-1.5,2.1-1.5,3.4c-0.2,5.1,2.9,11.1,8.6,11.1h130.3c4.8,0,8.7-4.5,8.7-10.4
		C160.4,109.1,159.8,107.2,151.7,107.2z"/>
	<path class="st0" d="M158.7,100.2c3.5-5.6,2.7-12.9-1.8-17.7c3.7-3.5,4.3-9.4,1.5-13.6c3.8-2.3,6.7-5.8,8.3-10
		c1.5-4,1.5-8.3,0.8-12.5c-1.4-8.3-5.9-15.8-11.8-21.7c-3.9-3.9-8.4-7.3-13.1-10.1c-13.4-8-28.8-12.3-44.2-13.9
		C81.8-1,64.8,0.2,48.7,4.7c-8.1,2.3-16.1,5.5-23.4,9.9c-8,4.8-15.4,11.1-20.2,19.2c-4,6.8-6.6,15.9-4.3,23.7
		c1.4,4.7,4.6,8.8,8.8,11.4C6.7,73.2,7.4,79,11.1,82.5c-4.5,4.8-5.2,12.1-1.8,17.7c-2.3,0.6-4.4,1.6-6.1,3.3c-2.1,2.1-3,5-3.2,7.9
		c-0.4,6.2,2.1,12.6,7.1,16.5c2.6,2,5.8,3.2,9.2,3.2h135.4c6,0,11.3-3.8,14.1-9.1c2.7-5.2,3.5-12.9-0.4-17.8
		C163.7,102.2,161.3,100.9,158.7,100.2z M151.7,123.5H16.3c-5.8,0-8.8-6.3-8.6-11.4c0.1-1.4,0.3-2.7,1.5-3.6
		c1.9-1.4,4.9-1.4,7.1-1.4h75.3c2.5,2,4.6,4,6.3,6.2c0.7,0.9,1.8,1.4,2.9,1.5c1.1,0,2.3-0.5,3-1.3c0.1-0.1,2.3-2.7,6.1-6.4h41.7
		c8,0,8.7,2.2,8.7,5.7C160.4,118.7,156.5,123.5,151.7,123.5z M102.3,104c-0.5,0.5-0.9,0.9-1.3,1.3c-0.4-0.4-0.9-0.9-1.4-1.3
		c-8.5-7.9-21.3-14.1-32.5-18.5h58C115.1,91.7,107,99.3,102.3,104z M146.3,99.5h-27.6c6.6-5.3,15-10.8,23.9-14h3.6c3.9,0,7,3.1,7,7
		C153.3,96.4,150.1,99.5,146.3,99.5z M149.5,77.9h-131c-3.9,0-3.9-6.1,0-6.1h131C153.5,71.8,153.5,77.9,149.5,77.9z M21.7,85.5h20.9
		c3.6,0.9,21.4,5.8,37,14H21.7c-3.8,0-7-3.2-7-7C14.7,88.7,17.9,85.5,21.7,85.5z M7.6,51.9c0-11.5,7.7-22.4,21.6-30.7
		c12.5-7.5,27-11.4,41.3-12.9c15.5-1.6,31.5-0.5,46.5,3.7c7.5,2.1,14.9,5.1,21.6,9.1c7.1,4.3,13.8,9.9,18,17.2
		c3.2,5.7,5.6,14.1,1.7,20.1c-2.2,3.5-6.2,5.6-10.3,5.6H19.9C13.1,64.1,7.6,58.7,7.6,51.9z"/>
</g>
</svg>
