<?xml version="1.0" encoding="iso-8859-1"?>
<!-- Generator: Adobe Illustrator 19.0.0, SVG Export Plug-In . SVG Version: 6.00 Build 0)  -->
<svg version="1.1" id="Layer_1" xmlns="http://www.w3.org/2000/svg" xmlns:xlink="http://www.w3.org/1999/xlink" x="0px" y="0px"
	 viewBox="0 0 503.326 503.326" style="enable-background:new 0 0 503.326 503.326;" xml:space="preserve">
<g>
	<path style="fill:#FFD479;" d="M321.085,156.205h-149.27c-8.044,39.606-43.051,69.424-85.035,69.424v69.424h156.229
		c47.911,0,86.754-38.843,86.754-86.754v-43.416C329.763,160.093,325.875,156.205,321.085,156.205"/>
	<g>
		<path style="fill:#797979;" d="M225.627,407.866c0-23.96-19.43-43.39-43.39-43.39s-43.39,19.43-43.39,43.39
			s19.43,43.39,43.39,43.39S225.627,431.826,225.627,407.866"/>
		<path style="fill:#797979;" d="M451.254,407.866c0-23.96-19.43-43.39-43.39-43.39c-23.96,0-43.39,19.43-43.39,43.39
			s19.43,43.39,43.39,43.39C431.824,451.256,451.254,431.826,451.254,407.866"/>
	</g>
	<path style="fill:#4FBA6F;" d="M497.867,318.904l-37.931-15.178l-22.754-90.988c-1.927-7.723-8.869-13.147-16.835-13.147h-90.581
		v8.704c0,47.92-38.843,86.754-86.762,86.754H86.783v104.136c0,4.799,3.879,8.678,8.678,8.678h43.39
		c0-23.96,19.421-43.39,43.39-43.39c23.96,0,43.39,19.43,43.39,43.39h104.136h34.712c0-23.96,19.421-43.39,43.39-43.39
		c23.96,0,43.39,19.43,43.39,43.39h43.39c4.79,0,8.678-3.879,8.678-8.678v-72.227C503.326,323.417,501.165,320.223,497.867,318.904"
		/>
	<g>
		<path style="fill:#C0C0C0;" d="M182.237,425.222c-9.58,0-17.356-7.775-17.356-17.356s7.775-17.356,17.356-17.356
			s17.356,7.775,17.356,17.356S191.818,425.222,182.237,425.222"/>
		<path style="fill:#C0C0C0;" d="M407.864,425.222c-9.58,0-17.356-7.775-17.356-17.356s7.775-17.356,17.356-17.356
			s17.356,7.775,17.356,17.356S417.445,425.222,407.864,425.222"/>
	</g>
	<path style="fill:#308C47;" d="M381.831,347.12h-17.356c-4.799,0-8.678-3.888-8.678-8.678s3.879-8.678,8.678-8.678h17.356
		c4.799,0,8.678,3.888,8.678,8.678S386.629,347.12,381.831,347.12"/>
	<g>
		<path style="fill:#E2B566;" d="M269.017,208.273H148.749c-4.799,0-8.678-3.888-8.678-8.678s3.879-8.678,8.678-8.678h120.268
			c4.799,0,8.678,3.888,8.678,8.678S273.816,208.273,269.017,208.273"/>
		<path style="fill:#E2B566;" d="M251.661,260.341H130.169c-4.799,0-8.678-3.888-8.678-8.678c0-4.79,3.879-8.678,8.678-8.678
			h121.492c4.799,0,8.678,3.888,8.678,8.678C260.339,256.453,256.46,260.341,251.661,260.341"/>
	</g>
	<path style="fill:#48A0DC;" d="M173.559,138.849c0-47.928-38.851-86.78-86.78-86.78S0,90.921,0,138.849s38.851,86.78,86.78,86.78
		S173.559,186.778,173.559,138.849"/>
	<g>
		<path style="fill:#FFFFFF;" d="M86.78,147.527c-4.799,0-8.678-3.888-8.678-8.678V86.781c0-4.79,3.879-8.678,8.678-8.678
			c4.799,0,8.678,3.888,8.678,8.678v52.068C95.458,143.639,91.579,147.527,86.78,147.527"/>
		<path style="fill:#FFFFFF;" d="M112.814,147.527H86.78c-4.799,0-8.678-3.888-8.678-8.678s3.879-8.678,8.678-8.678h26.034
			c4.799,0,8.678,3.888,8.678,8.678S117.612,147.527,112.814,147.527"/>
	</g>
	<path style="fill:#308C47;" d="M373.153,284.032v-41.047c0-4.79-3.879-8.678-8.678-8.678s-8.678,3.888-8.678,8.678v41.047
		c0,15.646,12.731,28.377,28.377,28.377h97.454l-21.695-8.678l-2.169-8.678h-73.589C378.09,295.053,373.153,290.106,373.153,284.032
		"/>
</g>
<g>
</g>
<g>
</g>
<g>
</g>
<g>
</g>
<g>
</g>
<g>
</g>
<g>
</g>
<g>
</g>
<g>
</g>
<g>
</g>
<g>
</g>
<g>
</g>
<g>
</g>
<g>
</g>
<g>
</g>
</svg>
