<?xml version="1.0" encoding="utf-8"?>
<!-- Generator: Adobe Illustrator 16.0.0, SVG Export Plug-In . SVG Version: 6.00 Build 0)  -->
<!DOCTYPE svg PUBLIC "-//W3C//DTD SVG 1.1//EN" "http://www.w3.org/Graphics/SVG/1.1/DTD/svg11.dtd">
<svg version="1.1" id="Capa_1" xmlns="http://www.w3.org/2000/svg" xmlns:xlink="http://www.w3.org/1999/xlink" x="0px" y="0px"
	 width="512px" height="512px" viewBox="0 0 512 512" enable-background="new 0 0 512 512" xml:space="preserve">
<g>
	<path fill="#3F2D20" d="M255.999,147.924c3.056,0,6.067-1.242,8.224-3.414c2.172-2.172,3.412-5.166,3.412-8.223
		c0-3.071-1.24-6.067-3.412-8.238c-2.156-2.158-5.15-3.399-8.224-3.399c-3.073,0-6.066,1.241-8.223,3.399
		c-2.172,2.17-3.413,5.167-3.413,8.238c0,3.057,1.241,6.051,3.413,8.223C249.933,146.682,252.942,147.924,255.999,147.924z"/>
	<path fill="#3F2D20" d="M353.248,180.072c3.058,0,6.051-1.242,8.223-3.414c2.172-2.158,3.414-5.167,3.414-8.223
		c0-3.073-1.242-6.066-3.414-8.225c-2.172-2.171-5.167-3.412-8.223-3.412c-3.071,0-6.066,1.24-8.238,3.412
		c-2.156,2.158-3.397,5.152-3.397,8.225c0,3.056,1.241,6.065,3.397,8.223C347.182,178.831,350.176,180.072,353.248,180.072z"/>
	<path fill="#3F2D20" d="M158.766,180.072c3.056,0,6.051-1.242,8.223-3.414c2.156-2.158,3.413-5.167,3.413-8.223
		c0-3.073-1.257-6.066-3.413-8.225c-2.172-2.171-5.167-3.412-8.223-3.412c-3.073,0-6.066,1.24-8.238,3.412
		c-2.156,2.158-3.398,5.152-3.398,8.225c0,3.056,1.24,6.065,3.398,8.223C152.699,178.831,155.693,180.072,158.766,180.072z"/>
	<path fill="#EF8829" d="M455.68,274.473H79.131c-5.135,0-9.313,4.928-9.313,10.063s4.176,10.062,9.313,10.062H455.68
		c5.135,0,9.312-4.927,9.312-10.062S460.814,274.473,455.68,274.473z"/>
	<g>
		<path fill="#CE593F" d="M402.302,331.873c1.907-0.982,3.544-1.927,5.545-3.021C405.981,329.842,404.134,330.843,402.302,331.873z"
			/>
		<path fill="#CE593F" d="M413.211,326.082c4.426-2.152,10.847-4.99,21.559-9.191C427.415,319.478,420.219,322.611,413.211,326.082z
			"/>
		<path fill="#CE593F" d="M466.032,344.41c0.219-0.705,0.479-1.391,0.623-2.127C466.508,343.016,466.253,343.707,466.032,344.41z"/>
		<path fill="#CE593F" d="M445.768,330.2h-44.39c-14.505,12.384-27.934,20.124-39.583,29.411h83.973
			c9.016,0,16.694-6.815,19.799-14.744C462.446,336.976,454.759,330.2,445.768,330.2z"/>
	</g>
	<g>
		<path fill="#CE593F" d="M49.082,350.705c-0.327-0.444-0.628-0.906-0.921-1.375C48.454,349.803,48.755,350.258,49.082,350.705z"/>
		<path fill="#CE593F" d="M47.077,347.332c-0.223-0.465-0.449-0.93-0.639-1.41C46.628,346.406,46.853,346.865,47.077,347.332z"/>
		<path fill="#CE593F" d="M50.438,352.348c0.384,0.428,0.757,0.859,1.175,1.255C51.198,353.209,50.823,352.774,50.438,352.348z"/>
		<path fill="#CE593F" d="M45.67,343.454c-0.11-0.425-0.25-0.835-0.334-1.27C45.419,342.619,45.56,343.028,45.67,343.454z"/>
		<path fill="#CE593F" d="M59.531,358.304c-0.824-0.275-1.633-0.571-2.409-0.94C57.897,357.734,58.704,358.028,59.531,358.304z"/>
		<path fill="#CE593F" d="M54.601,355.992c-0.488-0.318-0.923-0.707-1.381-1.064C53.679,355.287,54.111,355.672,54.601,355.992z"/>
		<path fill="#CE593F" d="M168.931,328.684c-3.13-1.057-6.138-2.044-9.007-2.968C163.168,326.767,166.207,327.773,168.931,328.684z"
			/>
		<path fill="#CE593F" d="M179.331,331.246c0.104,0.043,0.263-1.045,0.29-1.045H81.748c-11.745,0-21.3,10.656-21.3,22.4
			c0,1.756,0.24,4.066,0.643,5.699c1.656,0.415,3.359,1.313,5.142,1.313h176.417C221.642,347.229,198.922,338.219,179.331,331.246z"
			/>
	</g>
	<g>
		<path fill="#FDD44B" d="M385.735,318.385l-157.663-4.016c30.688,12.045,69.354,32.577,94.834,53.303
			C337.621,353.446,359.536,334.445,385.735,318.385z"/>
		<path fill="#FDD44B" d="M307.896,377.229c0.745-0.782,1.547-1.613,2.377-2.467C309.438,375.621,308.645,376.445,307.896,377.229z"
			/>
	</g>
	<g>
		<path fill="#FDD44B" d="M457.508,147.383c-2.22-2.215-4.546-4.401-6.989-6.551C452.962,142.982,455.29,145.168,457.508,147.383z"
			/>
		<path fill="#FDD44B" d="M442.92,134.569c2.13,1.664,4.188,3.353,6.176,5.063C447.105,137.924,445.05,136.235,442.92,134.569z"/>
		<path fill="#FDD44B" d="M434.376,128.3c2.055,1.426,4.061,2.87,6.005,4.334C438.436,131.17,436.431,129.726,434.376,128.3z"/>
		<path fill="#FDD44B" d="M458.751,148.681c1.763,1.808,3.458,3.635,5.072,5.483C462.208,152.315,460.516,150.489,458.751,148.681z"
			/>
		<path fill="#FDD44B" d="M470.924,163.06c3.422,4.749,6.359,9.604,8.81,14.546C477.28,172.664,474.346,167.808,470.924,163.06z"/>
		<path fill="#FDD44B" d="M23.545,218.8c-0.166-1.42-0.272-2.858-0.272-4.321C23.272,215.942,23.379,217.378,23.545,218.8z"/>
		<path fill="#FDD44B" d="M465.431,156.049c1.517,1.807,2.963,3.632,4.336,5.474C468.394,159.681,466.949,157.855,465.431,156.049z"
			/>
		<path fill="#FDD44B" d="M422.804,120.781c3.111,1.867,6.09,3.788,8.994,5.735C428.894,124.569,425.917,122.648,422.804,120.781z"
			/>
		<path fill="#FDD44B" d="M33.357,239.88c0.675,0.722,1.379,1.412,2.11,2.078C34.737,241.292,34.032,240.602,33.357,239.88z"/>
		<path fill="#FDD44B" d="M39.347,245.081c-1.043-0.723-2.043-1.504-3.005-2.328C37.303,243.577,38.303,244.357,39.347,245.081z"/>
		<path fill="#FDD44B" d="M32.478,238.914c-0.662-0.76-1.289-1.551-1.892-2.364C31.189,237.363,31.814,238.152,32.478,238.914z"/>
		<path fill="#FDD44B" d="M479.969,178.108c-10.628-12.336-24.597-23.822-41.649-34.053
			c-44.372-26.622-103.611-41.285-166.805-41.285s-122.432,14.663-166.803,41.285c-42.512,25.506-65.924,58.782-65.924,93.696
			c0,2.561,0.262,4.83,0.756,7.246c5.977,4.088,13.195,6.257,20.966,6.257h390.982c20.532,0,37.236-16.474,37.236-37.008
			C488.728,201.82,485.707,189.841,479.969,178.108z M166.989,176.659c-2.172,2.172-5.167,3.414-8.223,3.414
			c-3.073,0-6.066-1.242-8.238-3.414c-2.156-2.158-3.398-5.167-3.398-8.223c0-3.073,1.242-6.066,3.398-8.225
			c2.172-2.17,5.166-3.412,8.238-3.412c3.056,0,6.051,1.24,8.223,3.412c2.156,2.158,3.413,5.152,3.413,8.225
			C170.402,171.492,169.145,174.501,166.989,176.659z M264.223,144.51c-2.156,2.173-5.168,3.414-8.224,3.414
			s-6.066-1.242-8.223-3.414c-2.172-2.17-3.413-5.166-3.413-8.223c0-3.071,1.241-6.067,3.413-8.238
			c2.156-2.158,5.152-3.399,8.223-3.399c3.073,0,6.067,1.241,8.224,3.399c2.172,2.17,3.412,5.167,3.412,8.238
			C267.635,139.345,266.395,142.338,264.223,144.51z M361.471,176.659c-2.172,2.172-5.167,3.414-8.223,3.414
			c-3.072,0-6.066-1.242-8.238-3.414c-2.156-2.158-3.397-5.167-3.397-8.223c0-3.073,1.241-6.066,3.397-8.225
			c2.172-2.17,5.167-3.412,8.238-3.412c3.058,0,6.051,1.24,8.223,3.412c2.172,2.158,3.414,5.152,3.414,8.225
			C364.885,171.492,363.643,174.501,361.471,176.659z"/>
		<path fill="#FDD44B" d="M27.647,231.953c-0.61-1.141-1.15-2.323-1.641-3.532C26.497,229.629,27.037,230.811,27.647,231.953z"/>
		<path fill="#FDD44B" d="M25.561,227.205c-0.332-0.907-0.633-1.827-0.895-2.765C24.927,225.378,25.229,226.298,25.561,227.205z"/>
		<path fill="#FDD44B" d="M29.922,235.662c-0.785-1.131-1.521-2.297-2.181-3.514C28.401,233.365,29.138,234.53,29.922,235.662z"/>
		<path fill="#FDD44B" d="M24.302,223.021c-0.226-0.952-0.404-1.922-0.554-2.901C23.898,221.1,24.076,222.067,24.302,223.021z"/>
	</g>
	<path fill="#FDD44B" d="M462.362,382.832h-127.03c-11.641,12.383-18.505,19.041-18.695,19.266c-2.214,2.598-5.455,3.953-8.86,3.953
		c-0.084,0-0.169,0-0.254,0c-3.499,0-6.777-1.583-8.929-4.343c-5.197-6.674-11.795-11.136-19.35-18.876H65.156
		c-24.533,0-26.369,5.943-26.369,16.35c0,17.929,11.83,31.638,26.369,31.638h397.206c14.539,0,26.365-13.708,26.365-31.638
		C488.728,388.777,486.892,382.832,462.362,382.832z"/>
	<path fill="#3F2D20" d="M483.616,361.666c4.249-6.822,6.725-14.863,6.725-23.479c0-11.768-4.595-22.477-12.074-30.45
		c6.149-5.931,9.997-14.235,9.997-23.432c0-6.677-2.033-12.876-5.497-18.045c17.508-10.614,29.231-29.856,29.231-51.783
		c0-43.412-27.424-83.773-77.221-113.653c-47.937-28.761-111.427-44.602-178.778-44.602c-67.35,0-130.841,15.839-178.778,44.602
		C27.424,130.704,0,171.066,0,214.479c0,21.927,11.723,41.167,29.23,51.782c-3.463,5.169-5.494,11.37-5.494,18.045
		c0,9.198,3.847,17.503,9.999,23.434c-7.479,7.974-12.076,18.679-12.076,30.448c0,8.615,2.466,16.658,6.715,23.481
		C14.48,365.262,0,374.775,0,399.99c0,30.761,22.27,55.785,49.641,55.785h412.722c27.37,0,49.638-25.026,49.638-55.785
		C512,374.77,497.513,365.258,483.616,361.666z M462.362,432.503H49.641c-14.54,0-26.368-14.585-26.368-32.513
		c0-10.406,1.836-17.229,26.368-17.229h229.604c7.554,5.996,14.152,12.341,19.35,19.014c2.15,2.761,5.43,4.404,8.929,4.482
		c0.085,0.001,0.169,0.001,0.254,0.001c3.405,0,6.646-1.493,8.86-4.093c0.19-0.225,7.055-8.203,18.696-19.404h127.029
		c24.531,0,26.365,6.82,26.365,17.228C488.728,417.918,476.899,432.503,462.362,432.503z M311.779,373.229
		c-1.386,1.408-2.706,2.766-3.883,4c-1.337-1.351-2.726-2.68-4.144-4c-25.865-24.05-64.85-42.999-98.939-56.338h176.908
		C350.885,335.754,325.975,358.785,311.779,373.229z M445.768,359.49h-83.973c20.186-16.166,45.594-32.968,72.975-42.6h10.998
		c11.745,0,21.301,9.555,21.301,21.297C467.068,349.934,457.513,359.49,445.768,359.49z M455.68,293.618H56.322
		c-5.135,0-9.313-4.177-9.313-9.313c0-5.135,4.176-9.313,9.313-9.313H455.68c5.135,0,9.312,4.178,9.312,9.313
		S460.814,293.618,455.68,293.618z M66.232,316.891h63.757c10.951,2.865,65.327,17.641,112.661,42.6H66.232
		c-11.745,0-21.3-9.557-21.3-21.303C44.932,326.445,54.487,316.891,66.232,316.891z M23.272,214.479
		c0-34.915,23.412-68.19,65.924-93.696c44.372-26.622,103.611-41.285,166.805-41.285s122.432,14.663,166.805,41.285
		c42.511,25.506,65.922,58.782,65.922,93.696c0,20.534-16.704,37.24-37.236,37.24H60.509
		C39.977,251.717,23.272,235.012,23.272,214.479z"/>
</g>
<path id="ketchup" fill="#FF0000" d="M289.75,402.833c0-9.112,6.055-5.417,15.167-5.417s20.5-2.832,12.416,11
	c-1.85,3.165,1.522,6.509-0.5,9.248c-3.006,4.068-4.387,7.836-9.833,7.836c-5.268,0-3.979-6.406-7-10.25
	C297.796,412.445,289.75,406.678,289.75,402.833z"/>
</svg>
