<svg style="position: absolute; width: 0; height: 0; overflow: hidden;" version="1.1" xmlns="http://www.w3.org/2000/svg" xmlns:xlink="http://www.w3.org/1999/xlink">
<defs>
<symbol id="icon-arrow_back" viewBox="0 0 24 24">
<title>arrow_back</title>
<path d="M20.016 11.016v1.969h-12.188l5.578 5.625-1.406 1.406-8.016-8.016 8.016-8.016 1.406 1.406-5.578 5.625h12.188z"></path>
</symbol>
<symbol id="icon-arrow_forward" viewBox="0 0 24 24">
<title>arrow_forward</title>
<path d="M12 3.984l8.016 8.016-8.016 8.016-1.406-1.406 5.578-5.625h-12.188v-1.969h12.188l-5.578-5.625z"></path>
</symbol>
<symbol id="icon-close" viewBox="0 0 24 24">
<title>close</title>
<path d="M18.984 6.422l-5.578 5.578 5.578 5.578-1.406 1.406-5.578-5.578-5.578 5.578-1.406-1.406 5.578-5.578-5.578-5.578 1.406-1.406 5.578 5.578 5.578-5.578z"></path>
</symbol>
<symbol id="icon-exit" viewBox="0 0 24 24">
<title>exit</title>
<path d="M18.984 3q0.797 0 1.406 0.609t0.609 1.406v13.969q0 0.797-0.609 1.406t-1.406 0.609h-13.969q-0.844 0-1.43-0.609t-0.586-1.406v-3.984h2.016v3.984h13.969v-13.969h-13.969v3.984h-2.016v-3.984q0-0.797 0.586-1.406t1.43-0.609h13.969zM10.078 15.609l2.578-2.625h-9.656v-1.969h9.656l-2.578-2.625 1.406-1.406 5.016 5.016-5.016 5.016z"></path>
</symbol>
<symbol id="icon-qrcode" viewBox="0 0 24 24">
<title>qrcode</title>
<path d="M7.5 1.5h-6v6h6v-6zM9 0v0 9h-9v-9h9zM3 3h3v3h-3zM22.5 1.5h-6v6h6v-6zM24 0v0 9h-9v-9h9zM18 3h3v3h-3zM7.5 16.5h-6v6h6v-6zM9 15v0 9h-9v-9h9zM3 18h3v3h-3zM10.5 0h1.5v1.5h-1.5zM12 1.5h1.5v1.5h-1.5zM10.5 3h1.5v1.5h-1.5zM12 4.5h1.5v1.5h-1.5zM10.5 6h1.5v1.5h-1.5zM12 7.5h1.5v1.5h-1.5zM10.5 9h1.5v1.5h-1.5zM10.5 12h1.5v1.5h-1.5zM12 13.5h1.5v1.5h-1.5zM10.5 15h1.5v1.5h-1.5zM12 16.5h1.5v1.5h-1.5zM10.5 18h1.5v1.5h-1.5zM12 19.5h1.5v1.5h-1.5zM10.5 21h1.5v1.5h-1.5zM12 22.5h1.5v1.5h-1.5zM22.5 12h1.5v1.5h-1.5zM1.5 12h1.5v1.5h-1.5zM3 10.5h1.5v1.5h-1.5zM0 10.5h1.5v1.5h-1.5zM6 10.5h1.5v1.5h-1.5zM7.5 12h1.5v1.5h-1.5zM9 10.5h1.5v1.5h-1.5zM13.5 12h1.5v1.5h-1.5zM15 10.5h1.5v1.5h-1.5zM16.5 12h1.5v1.5h-1.5zM18 10.5h1.5v1.5h-1.5zM19.5 12h1.5v1.5h-1.5zM21 10.5h1.5v1.5h-1.5zM22.5 15h1.5v1.5h-1.5zM13.5 15h1.5v1.5h-1.5zM15 13.5h1.5v1.5h-1.5zM16.5 15h1.5v1.5h-1.5zM19.5 15h1.5v1.5h-1.5zM21 13.5h1.5v1.5h-1.5zM22.5 18h1.5v1.5h-1.5zM13.5 18h1.5v1.5h-1.5zM15 16.5h1.5v1.5h-1.5zM18 16.5h1.5v1.5h-1.5zM19.5 18h1.5v1.5h-1.5zM21 16.5h1.5v1.5h-1.5zM22.5 21h1.5v1.5h-1.5zM15 19.5h1.5v1.5h-1.5zM16.5 21h1.5v1.5h-1.5zM18 19.5h1.5v1.5h-1.5zM19.5 21h1.5v1.5h-1.5zM15 22.5h1.5v1.5h-1.5zM18 22.5h1.5v1.5h-1.5zM21 22.5h1.5v1.5h-1.5z"></path>
</symbol>
</defs>
</svg>
