<svg style="position: absolute; width: 0; height: 0; overflow: hidden;" version="1.1" xmlns="http://www.w3.org/2000/svg" xmlns:xlink="http://www.w3.org/1999/xlink">
<defs>
<symbol id="icon-add-ios" viewBox="0 0 32 32">
<title>add-ios</title>
<path fill="#4be26e" style="fill: var(--color1, #4be26e)" d="M31.5 27.25c0 2.325-1.925 4.25-4.25 4.25h-22.5c-2.35 0-4.25-1.925-4.25-4.25v-22.5c0-2.35 1.9-4.25 4.25-4.25h22.5c2.325 0 4.25 1.9 4.25 4.25v22.5z"></path>
<path fill="#fff" style="fill: var(--color2, #fff)" d="M17.1 11.025h-2.225v4.15h-4.15v1.95h4.15v4.15h2.225v-4.175h4.15v-2.225h-4.15v-3.85zM16 5.85c-5.6 0-10.15 4.55-10.15 10.15s4.55 10.15 10.15 10.15 10.15-4.55 10.15-10.15-4.55-10.15-10.15-10.15zM16 24.125c-4.475 0-8.125-3.65-8.125-8.125s3.65-8.125 8.125-8.125 8.125 3.65 8.125 8.125-3.65 8.125-8.125 8.125z"></path>
</symbol>
<symbol id="icon-add-android" viewBox="0 0 32 32">
<title>add-android</title>
<path d="M17.333 9.333h-2.667v5.333h-5.333v2.667h5.333v5.333h2.667v-5.333h5.333v-2.667h-5.333v-5.333zM16 2.667c-7.36 0-13.333 5.973-13.333 13.333s5.973 13.333 13.333 13.333 13.333-5.973 13.333-13.333-5.973-13.333-13.333-13.333zM16 26.667c-5.88 0-10.667-4.787-10.667-10.667s4.787-10.667 10.667-10.667 10.667 4.787 10.667 10.667-4.787 10.667-10.667 10.667z"></path>
</symbol>
<symbol id="icon-map-android" viewBox="0 0 32 32">
<title>map-android</title>
<path d="M27.333 4l-0.213 0.040-7.12 2.76-8-2.8-7.52 2.533c-0.28 0.093-0.48 0.333-0.48 0.64v20.16c0 0.373 0.293 0.667 0.667 0.667l0.213-0.040 7.12-2.76 8 2.8 7.52-2.533c0.28-0.093 0.48-0.333 0.48-0.64v-20.16c0-0.373-0.293-0.667-0.667-0.667zM20 25.333l-8-2.813v-15.853l8 2.813v15.853z"></path>
</symbol>
<symbol id="icon-map-ios" viewBox="0 0 32 32">
<title>map-ios</title>
<path fill="#ff8989" style="fill: var(--color3, #ff8989)" d="M31.5 27.25c0 2.325-1.925 4.25-4.25 4.25h-22.5c-2.35 0-4.25-1.925-4.25-4.25v-22.5c0-2.35 1.9-4.25 4.25-4.25h22.5c2.325 0 4.25 1.9 4.25 4.25v22.5z"></path>
<path fill="#fff" style="fill: var(--color2, #fff)" d="M24.525 7.050l-0.15 0.025-5.375 2.075-6-2.1-5.65 1.9c-0.2 0.075-0.35 0.25-0.35 0.475v15.15c0 0.275 0.225 0.5 0.5 0.5l0.15-0.025 5.35-2.075 6.025 2.1 5.65-1.9c0.2-0.075 0.35-0.25 0.35-0.475v-15.15c0-0.275-0.225-0.5-0.5-0.5zM19 23.075l-6-2.1v-11.925l6 2.125v11.9z"></path>
</symbol>
</defs>
</svg>
